<?xml version="1.0" standalone="no"?>
<!DOCTYPE svg PUBLIC "-//W3C//DTD SVG 20010904//EN"
 "http://www.w3.org/TR/2001/REC-SVG-20010904/DTD/svg10.dtd">
<svg version="1.0" xmlns="http://www.w3.org/2000/svg"
 width="500.000000pt" height="500.000000pt" viewBox="0 0 500.000000 500.000000"
 preserveAspectRatio="xMidYMid meet">

<g transform="translate(0.000000,500.000000) scale(0.100000,-0.100000)"
fill="#000000" stroke="none">
<path d="M1953 3753 c47 -64 87 -145 87 -175 0 -13 -15 -42 -33 -64 -130 -152
-236 -380 -291 -625 -33 -147 -43 -222 -56 -398 -12 -163 -16 -152 75 -196 57
-28 75 -31 75 -12 0 8 14 41 30 74 22 45 40 65 64 77 39 18 62 20 71 6 3 -5 1
-10 -4 -10 -16 0 -61 -73 -76 -124 l-14 -46 59 0 c96 0 106 7 114 82 9 92 31
172 71 256 51 107 77 138 127 146 104 17 219 103 266 198 13 26 30 82 39 124
27 132 -5 254 -101 388 -104 146 -299 285 -456 326 -25 6 -54 14 -64 17 -15 4
-12 -5 17 -44z"/>
<path d="M2498 3534 c73 -81 127 -183 147 -279 19 -89 19 -144 0 -225 -36
-156 -77 -215 -293 -430 -108 -107 -190 -197 -209 -230 -45 -77 -52 -103 -14
-52 49 66 113 124 263 239 214 163 292 252 340 391 19 57 23 87 23 192 -1 141
-14 185 -84 288 -50 73 -142 146 -210 167 -20 6 -12 -6 37 -61z"/>
<path d="M2773 3413 c70 -74 108 -235 87 -375 -33 -227 -130 -358 -440 -593
-194 -147 -304 -258 -359 -365 -24 -45 -40 -84 -37 -87 3 -4 6 -1 6 5 0 6 26
44 59 84 68 85 178 175 380 313 127 86 295 219 326 257 138 168 192 309 182
470 -9 131 -77 247 -177 298 -53 27 -59 25 -27 -7z"/>
<path d="M3054 3180 c43 -156 -20 -362 -169 -547 -78 -97 -169 -177 -365 -320
-387 -283 -526 -438 -603 -673 -45 -137 -42 -151 11 -45 105 208 262 367 557
565 224 150 357 251 450 345 161 161 209 262 209 440 1 94 -3 118 -23 162 -12
28 -34 62 -48 75 l-26 23 7 -25z"/>
<path d="M3247 2853 c7 -44 -23 -167 -57 -238 -75 -157 -214 -287 -545 -512
-462 -313 -565 -426 -686 -755 -41 -113 -36 -116 16 -10 138 285 302 434 755
687 234 131 272 156 361 245 160 158 239 343 208 488 -18 86 -62 167 -52 95z"/>
<path d="M3335 2389 c-56 -127 -161 -247 -289 -331 -34 -22 -157 -87 -274
-144 -291 -142 -392 -210 -485 -328 l-31 -40 64 52 c83 67 203 128 365 187
373 134 445 168 547 264 84 78 126 157 134 251 3 36 2 80 -3 99 l-9 34 -19
-44z"/>
</g>
</svg>
